<svg width="124" height="96" viewBox="0 0 124 96" fill="none" xmlns="http://www.w3.org/2000/svg">
<g clip-path="url(#clip0_2047_1955)">
<ellipse cx="33.4139" cy="73.2918" rx="19.4914" ry="19.9886" fill="url(#paint0_linear_2047_1955)"/>
<ellipse cx="90.9601" cy="73.2918" rx="19.4914" ry="19.9886" fill="url(#paint1_linear_2047_1955)"/>
<path d="M6.10665 52.4685V72.8204C6.10665 74.451 7.3983 75.7756 8.98838 75.7756H12.5975C13.6607 86.5923 22.5903 95.0707 33.4178 95.0707C44.2453 95.0707 53.7904 85.9707 54.294 74.5993H58.901L70.0829 74.8909C70.7311 86.1285 79.8286 95.0754 90.9451 95.0754C102.062 95.0754 111.873 85.4494 111.873 73.6189C111.873 73.399 111.845 73.179 111.84 72.959C111.849 72.9017 111.873 72.8538 111.873 72.7917V44.7839C111.873 44.2388 111.444 43.7989 110.912 43.7989H109.965C107.41 43.7989 105.33 41.6661 105.33 39.0456V38.6774L117.025 33.4938C117.51 33.2786 117.734 32.7048 117.529 32.2075C117.45 32.0114 117.314 31.8536 117.146 31.7532C116.121 30.5147 110.343 20.4583 106.86 14.2609C106.687 13.9549 106.37 13.7684 106.025 13.7684H61.4424L54.3826 3.30553C53.1935 1.54578 51.2398 0.498535 49.1554 0.498535H17.4377C14.7099 0.498535 12.495 2.77473 12.495 5.56738C12.495 8.36002 14.7145 10.6362 17.4377 10.6362H36.7612L49.8828 32.8291H43.9422L34.2292 16.8958C34.052 16.6088 33.7442 16.4319 33.4131 16.4319H18.2817C15.5166 16.4319 13.269 18.9137 13.269 21.9694V43.3972H13.1011C9.61789 43.3972 6.10199 46.2042 6.10199 52.4781L6.10665 52.4685ZM101.124 25.6419C100.854 25.178 100.262 25.025 99.8048 25.3072C99.3525 25.5893 99.2033 26.1966 99.4784 26.6604L105.298 36.5399L98.7743 39.433L90.6653 25.6419C90.3949 25.1733 89.8027 25.025 89.3457 25.3072C88.8934 25.5893 88.7442 26.1918 89.0193 26.6604L96.993 40.222L90.6047 43.0529L80.5 25.6467C80.2249 25.1781 79.6374 25.025 79.1804 25.3024C78.7234 25.5797 78.5742 26.187 78.8447 26.6557L88.8188 43.8419L82.5611 46.6154L70.6238 25.6562C70.358 25.1876 69.7658 25.025 69.3088 25.3024C68.8519 25.5749 68.698 26.1823 68.9638 26.6509L80.7845 47.4044L74.0651 50.3836L59.8943 25.6562C59.6238 25.1828 59.0363 25.0298 58.5793 25.3072C58.1223 25.5845 57.9684 26.187 58.2389 26.6557L72.2885 51.1774L68.5861 52.8176C66.4924 53.7453 64.0163 52.9371 62.8366 50.9383L38.1274 9.13469C37.9549 8.83821 37.6425 8.66128 37.3067 8.66128H17.4424C15.7777 8.66128 14.4208 7.26974 14.4208 5.56259C14.4208 3.85545 15.7777 2.46391 17.4424 2.46391H49.1694C50.6242 2.46391 51.9905 3.19554 52.8158 4.41971L60.1647 15.3082C60.3419 15.5759 60.6403 15.7337 60.9528 15.7337H105.484C111.108 25.7328 113.738 30.2278 115.127 32.1884L107.084 35.7557L101.124 25.6467V25.6419ZM71.9481 73.6142C71.9481 62.8692 80.4721 54.1278 90.9545 54.1278C101.437 54.1278 109.961 62.8692 109.961 73.6142C109.961 84.3592 101.437 93.1005 90.9545 93.1005C80.4721 93.1005 71.9481 84.3592 71.9481 73.6142ZM60.202 62.4962H51.2817C51.1278 62.2332 50.9786 61.9606 50.8154 61.7072V44.3727C50.8154 44.1862 50.7641 44.0045 50.6709 43.8515L45.1499 34.7945H51.0532L61.1999 51.9568C62.4123 54.0035 64.5712 55.1703 66.7908 55.1703C67.6535 55.1703 68.5255 54.9934 69.3555 54.6251C69.3555 54.6251 82.645 48.7338 82.6683 48.7243L103.461 39.5095C103.698 42.9955 106.501 45.7642 109.956 45.769V49.738H104.934C104.403 49.738 103.974 50.178 103.974 50.7231C103.974 51.2682 104.403 51.7082 104.934 51.7082H109.956V64.6863C106.645 57.303 99.3805 52.1577 90.9498 52.1577C79.642 52.1577 70.4186 61.4107 70.0596 72.9208L64.8837 72.7869V67.2972C64.8837 64.6528 62.7853 62.501 60.2067 62.501L60.202 62.4962ZM54.2893 72.5095C54.1448 69.6452 53.4593 66.929 52.3216 64.4664H60.202C61.7222 64.4664 62.9578 65.7336 62.9578 67.2925V72.6291H58.915L54.2893 72.5095ZM14.4161 73.6142C14.4161 62.8692 22.9401 54.1278 33.4178 54.1278C43.8955 54.1278 52.4242 62.8692 52.4242 73.6142C52.4242 84.3592 43.9002 93.1005 33.4178 93.1005C22.9354 93.1005 14.4161 84.3592 14.4161 73.6142ZM14.4161 53.3484C14.4161 52.8032 13.9871 52.3633 13.4555 52.3633H8.03713C8.06977 48.1074 10.0469 45.3626 13.1058 45.3626H14.2342C14.7658 45.3626 15.1948 44.9226 15.1948 44.3775V36.9081H19.9791V44.5114C19.9791 45.0565 20.4081 45.4965 20.9396 45.4965H39.6476C40.1791 45.4965 40.6081 45.0565 40.6081 44.5114C40.6081 43.9662 40.1791 43.5263 39.6476 43.5263H31.0443V23.9539C31.0443 23.4087 30.6153 22.9688 30.0838 22.9688H15.1948V21.9598C15.1948 19.9944 16.5797 18.3973 18.2864 18.3973H32.8862L48.8943 44.6596V59.2206C45.0613 54.8929 39.5543 52.1577 33.4178 52.1577C21.8816 52.1577 12.4903 61.7837 12.4903 73.6189C12.4903 73.6859 12.4996 73.7481 12.4996 73.8102H8.98372C8.45214 73.8102 8.02314 73.3655 8.02314 72.8251V54.3382H13.4509C13.9824 54.3382 14.4114 53.8983 14.4114 53.3532L14.4161 53.3484ZM20.9396 34.9332H15.1948V24.939H29.1185V34.9332H20.935H20.9396ZM29.1185 36.9033V43.5215H21.9002V36.9033H29.1185Z" fill="#231F20"/>
</g>
<defs>
<linearGradient id="paint0_linear_2047_1955" x1="13.9225" y1="58.1005" x2="51.8361" y2="61.3723" gradientUnits="userSpaceOnUse">
<stop stop-color="#F7B53C"/>
<stop offset="0.463692" stop-color="#F7B53C"/>
<stop offset="1" stop-color="#FFCD73"/>
</linearGradient>
<linearGradient id="paint1_linear_2047_1955" x1="71.4686" y1="58.1005" x2="109.382" y2="61.3723" gradientUnits="userSpaceOnUse">
<stop stop-color="#F7B53C"/>
<stop offset="0.463692" stop-color="#F7B53C"/>
<stop offset="1" stop-color="#FFCD73"/>
</linearGradient>
<clipPath id="clip0_2047_1955">
<rect width="123.714" height="95.5811" fill="white"/>
</clipPath>
</defs>
</svg>
