<svg width="133" height="113" viewBox="0 0 133 113" fill="none" xmlns="http://www.w3.org/2000/svg">
<g clip-path="url(#clip0_2047_1931)">
<path d="M55.2057 51.4578V70.7722C55.2057 71.3618 55.6704 71.8334 56.239 71.8334H69.2066C69.7807 71.8334 70.2399 71.3562 70.2399 70.7722V52.4123C75.0235 51.8732 78.7684 47.7521 78.7684 42.6989V35.4391C78.7684 34.8496 78.3037 34.3779 77.7351 34.3779H58.7647C58.2563 34.3779 57.8244 34.7541 57.7424 35.2707L55.2221 51.2893C55.2221 51.2893 55.2276 51.3399 55.2112 51.4578H55.2057ZM70.2399 36.5003H76.7019V42.6989C76.7019 46.5842 73.8864 49.8014 70.2399 50.3236V36.5003ZM68.1734 50.3966H57.4581L59.6449 36.5003H68.1734V50.3966ZM57.2722 52.5189H68.1679V56.539H63.7506C63.1766 56.539 62.7173 57.0163 62.7173 57.6002C62.7173 58.1841 63.182 58.6614 63.7506 58.6614H68.1679V69.7111H57.2722V52.5245V52.5189Z" fill="#231F20"/>
<path d="M102.314 69.7227H107.797C108.365 69.7227 108.83 70.1999 108.83 70.7838C108.83 71.3678 108.365 71.845 107.797 71.845H102.314C101.739 71.845 101.28 71.3678 101.28 70.7838C101.28 70.1999 101.745 69.7227 102.314 69.7227Z" fill="#FAB70A"/>
<path d="M102.314 63.5356H107.797C108.365 63.5356 108.83 64.0129 108.83 64.5968C108.83 65.1807 108.365 65.658 107.797 65.658H102.314C101.739 65.658 101.28 65.1807 101.28 64.5968C101.28 64.0129 101.745 63.5356 102.314 63.5356Z" fill="#FAB70A"/>
<path d="M102.314 57.356H107.797C108.365 57.356 108.83 57.8332 108.83 58.4171C108.83 59.0011 108.365 59.4783 107.797 59.4783H102.314C101.739 59.4783 101.28 59.0011 101.28 58.4171C101.28 57.8332 101.745 57.356 102.314 57.356Z" fill="#FAB70A"/>
<path d="M93.6211 85.6655H72.2734H54.6383H45.3566H39.3236L36.075 88.0451L33.2905 91.8525L30.9701 96.6117L33.2905 103.275L38.3954 108.986L45.3566 109.937H89.4444C102.439 111.46 105.068 101.688 104.759 96.6117C104.017 88.997 97.0244 86.1414 93.6211 85.6655Z" fill="url(#paint0_linear_2047_1931)"/>
<path d="M0.417079 54.7541C0.411612 54.8664 0.384277 54.9787 0.384277 55.091C0.384277 55.8658 0.537353 56.5957 0.783367 57.2863L4.09636 80.1886C4.1401 80.4862 4.30411 80.7501 4.54465 80.9185L7.16334 82.7152C9.20799 83.6584 11.351 84.1245 13.4722 84.1245C16.7087 84.1245 19.8741 83.0464 22.5092 80.9746C24.439 79.4531 25.9807 77.4374 26.9593 75.1522L31.9342 63.513C32.0873 63.1481 32.0327 62.7326 31.7921 62.4238C31.5516 62.115 31.1634 61.969 30.7862 62.0476L22.4381 63.732L12.357 57.7524C12.7123 56.9438 12.9255 56.0511 12.9255 55.1078C12.9255 53.5582 12.3679 52.1545 11.4768 51.0428L28.8837 18.6518L48.3789 50.414H46.3726C43.4259 50.414 41.0258 52.8788 41.0258 55.9051V73.1085C41.0258 76.0899 43.3876 78.5154 46.2906 78.5154H48.1712V84.0908H43.9616C36.6468 84.0908 30.6987 90.1995 30.6987 97.712C30.6987 105.224 36.6468 111.333 43.9616 111.333H92.3007C99.6155 111.333 105.564 105.224 105.564 97.712C105.564 90.1995 99.6155 84.0908 92.3007 84.0908H88.0911V78.5154H115.306C117.979 78.5154 120.177 76.2808 120.199 73.5296L120.286 62.9852C120.303 61.2335 119.69 59.5434 118.564 58.224L113.868 52.7328C112.605 51.2562 110.779 50.4084 108.866 50.4084H100.889V35.9225C100.889 35.333 100.425 34.8613 99.8561 34.8613H97.5709V27.1861C97.5709 25.4175 98.3472 23.7668 99.6921 22.6663L100.638 21.8915L101.802 20.9426C102.251 20.5776 102.322 19.9095 101.966 19.4491C101.611 18.9887 100.96 18.9157 100.512 19.2806L98.4018 21.0043C96.554 22.5091 95.4989 24.7662 95.4989 27.1861V34.8613H93.2137C92.6397 34.8613 92.1804 35.3386 92.1804 35.9225V50.4084H87.1727L84.2369 32.6042C83.7941 29.9373 81.5635 28.0002 78.9285 28.0002H66.4965C67.0924 27.158 67.4587 26.1249 67.4587 25.0076C67.4587 22.189 65.2227 19.8926 62.4783 19.8926H59.0177C58.4491 19.8926 57.9844 20.3699 57.9844 20.9538V28.0002H57.0988C54.4637 28.0002 52.2277 29.9373 51.7903 32.6042L51.1944 36.2201L36.1438 11.7177C36.5703 10.7519 36.8272 9.69077 36.8272 8.56222C36.8272 4.3456 33.4869 0.915039 29.3812 0.915039C26.6914 0.915039 24.3515 2.40293 23.0395 4.60388C23.0121 4.6488 22.9684 4.68248 22.9465 4.73302L22.7825 5.09235C22.6622 5.32817 22.5474 5.56399 22.449 5.81665L1.50501 51.4302C0.991112 52.1882 0.641226 53.0697 0.48815 54.0186C0.411613 54.1983 0.36241 54.3948 0.395212 54.5969L0.417079 54.7485V54.7541ZM65.3922 24.9907C65.3922 26.6415 64.0856 27.9834 62.4783 27.9834H60.051V21.9981H62.4783C64.0856 21.9981 65.3922 23.34 65.3922 24.9907ZM98.8173 50.3971H94.2469V36.9725H98.8173V50.3971ZM49.2045 86.1963H92.3007C98.4729 86.1963 103.497 91.3562 103.497 97.6951C103.497 104.034 98.4729 109.194 92.3007 109.194H84.8984V106.151C84.8984 105.561 84.4337 105.09 83.8651 105.09C83.2966 105.09 82.8319 105.567 82.8319 106.151V109.194H78.6059V106.151C78.6059 105.561 78.1412 105.09 77.5726 105.09C77.0041 105.09 76.5394 105.567 76.5394 106.151V109.194H72.3134V106.151C72.3134 105.561 71.8487 105.09 71.2801 105.09C70.7116 105.09 70.2469 105.567 70.2469 106.151V109.194H66.0209V106.151C66.0209 105.561 65.5562 105.09 64.9876 105.09C64.4191 105.09 63.9544 105.567 63.9544 106.151V109.194H59.7284V106.151C59.7284 105.561 59.2637 105.09 58.6951 105.09C58.1266 105.09 57.6619 105.567 57.6619 106.151V109.194H53.4359V106.151C53.4359 105.561 52.9712 105.09 52.4026 105.09C51.8341 105.09 51.3694 105.567 51.3694 106.151V109.194H43.9671C37.7949 109.194 32.7707 104.034 32.7707 97.6951C32.7707 91.3562 37.7949 86.1963 43.9671 86.1963H49.2099H49.2045ZM50.2377 84.0739V78.4986H86.0246V84.0739H50.2377ZM49.7238 52.5195C50.2268 52.5195 50.6587 52.1489 50.7407 51.638L53.8241 32.9467C54.0919 31.3016 55.4696 30.1113 57.0933 30.1113H78.9285C80.5521 30.1113 81.9298 31.3073 82.1977 32.9467L85.2811 51.638C85.3686 52.1489 85.795 52.5195 86.2979 52.5195H108.86C110.183 52.5195 111.441 53.1034 112.31 54.1253L117.006 59.6164C117.793 60.5428 118.225 61.7275 118.214 62.9572L118.127 73.5015C118.116 75.0905 116.847 76.3818 115.3 76.3818H46.2851C44.5192 76.3818 43.0869 74.9108 43.0869 73.0973V55.8939C43.0869 54.0354 44.5575 52.5251 46.3616 52.5251H49.7129L49.7238 52.5195ZM30.0208 16.5126L30.2395 16.1027C32.0764 15.8781 33.7056 14.9854 34.8864 13.6435L50.6751 39.3475L49.2701 47.8761L30.0208 16.5182V16.5126ZM23.9962 8.54538C23.9962 5.50222 26.4071 3.02054 29.3757 3.02054C32.3443 3.02054 34.7552 5.49661 34.7552 8.54538C34.7552 11.5941 32.3443 14.0702 29.3757 14.0702C26.4071 14.0702 23.9962 11.5941 23.9962 8.54538ZM9.87496 49.5999C8.92918 49.0103 7.83031 48.651 6.64944 48.651C6.05354 48.651 5.48497 48.7633 4.93828 48.9261L22.3506 10.9821C23.1925 13.5368 25.2919 15.502 27.9105 16.041L9.87496 49.5999ZM3.34192 60.5372C4.30411 61.1548 5.4303 61.531 6.64944 61.531C8.44261 61.531 10.0499 60.745 11.1925 59.5041L21.7329 65.7589C21.9515 65.888 22.1975 65.9329 22.449 65.8824L29.239 64.5124L25.0568 74.2932C24.2203 76.2583 22.8973 77.982 21.2408 79.2902C17.485 82.2492 12.4718 82.8555 8.15286 80.868L6.06994 79.425L3.34192 60.5485V60.5372ZM2.4508 55.091C2.4508 52.7104 4.33691 50.7789 6.64944 50.7789C8.96198 50.7789 10.8481 52.716 10.8481 55.091C10.8481 57.466 8.96198 59.4031 6.64944 59.4031C4.33691 59.4031 2.4508 57.466 2.4508 55.091Z" fill="#231F20"/>
<path d="M91.8589 90.4248H43.8096C40.0538 90.4248 37.0032 93.5634 37.0032 97.4151C37.0032 101.267 40.0592 104.405 43.8096 104.405C46.8055 104.405 49.4078 102.401 50.2879 99.5262H85.3805C86.2607 102.401 88.863 104.405 91.8589 104.405C95.6147 104.405 98.6653 101.267 98.6653 97.4151C98.6653 93.5634 95.6093 90.4248 91.8589 90.4248ZM43.8096 92.5528H91.8589C94.4721 92.5528 96.5988 94.7369 96.5988 97.4207C96.5988 100.105 94.4721 102.289 91.8589 102.289C89.5682 102.289 87.6111 100.604 87.2065 98.2797C87.119 97.7744 86.6871 97.4038 86.1896 97.4038H49.4788C48.9759 97.4038 48.5494 97.7744 48.462 98.2797C48.0574 100.604 46.1002 102.289 43.8096 102.289C41.1964 102.289 39.0697 100.105 39.0697 97.4207C39.0697 94.7369 41.1964 92.5528 43.8096 92.5528Z" fill="black"/>
</g>
<defs>
<linearGradient id="paint0_linear_2047_1931" x1="30.9701" y1="88.5973" x2="98.4674" y2="106.644" gradientUnits="userSpaceOnUse">
<stop stop-color="#F7B53C"/>
<stop offset="0.463692" stop-color="#F7B53C"/>
<stop offset="1" stop-color="#FFCD73"/>
</linearGradient>
<clipPath id="clip0_2047_1931">
<rect width="131.799" height="112.317" fill="white" transform="translate(0.804688)"/>
</clipPath>
</defs>
</svg>
