<svg width="130" height="101" viewBox="0 0 130 101" fill="none" xmlns="http://www.w3.org/2000/svg">
<g clip-path="url(#clip0_2047_1943)">
<path d="M60.1743 57.6016H66.17C66.7872 57.6016 67.2917 58.1148 67.2917 58.7539C67.2917 59.393 66.7921 59.9063 66.17 59.9063H60.1743C59.5571 59.9063 59.0526 59.393 59.0526 58.7539C59.0526 58.1148 59.5522 57.6016 60.1743 57.6016Z" fill="#FAB70A"/>
<path d="M60.1743 50.853H66.17C66.7872 50.853 67.2917 51.3663 67.2917 52.0054C67.2917 52.6445 66.7921 53.1578 66.17 53.1578H60.1743C59.5571 53.1578 59.0526 52.6445 59.0526 52.0054C59.0526 51.3663 59.5522 50.853 60.1743 50.853Z" fill="#FAB70A"/>
<path d="M60.1743 44.1011H66.17C66.7872 44.1011 67.2917 44.6144 67.2917 45.2535C67.2917 45.8925 66.7921 46.4058 66.17 46.4058H60.1743C59.5571 46.4058 59.0526 45.8925 59.0526 45.2535C59.0526 44.6144 59.5522 44.1011 60.1743 44.1011Z" fill="#FAB70A"/>
<path d="M117.877 67.105H83.5348H47.8005L40.3752 70.9123L35.2703 80.9066L36.6625 90.425L43.6237 97.5638L51.5131 99.4674H105.811C108.038 100.61 117.258 98.357 121.589 97.0878L127.158 90.425L128.551 83.7621L126.694 74.7197L117.877 67.105Z" fill="url(#paint0_linear_2047_1943)"/>
<path d="M0.0484594 89.1109C-0.0544068 89.4581 0.00927228 89.8406 0.215005 90.1324C0.425635 90.4293 0.763624 90.6004 1.11631 90.6004H10.4086C10.82 90.6004 11.1972 90.3689 11.398 89.9966L18.873 75.7453C21.474 75.6245 23.5607 73.4305 23.5705 70.7282L30.6634 64.2719C31.6284 65.3638 33.0048 66.0633 34.5527 66.0633C35.9292 66.0633 37.1685 65.5098 38.1089 64.6191C38.9319 66.5061 40.6561 67.8749 42.7183 68.1768C37.575 71.1459 34.0874 76.792 34.0874 83.2735C34.0874 92.8196 41.6456 100.584 50.9378 100.584H113.118C122.41 100.584 129.968 92.8196 129.968 83.2735C129.968 76.8172 126.505 71.1811 121.386 68.207C124.188 67.9202 126.398 65.5098 126.398 62.5508V49.8092C126.398 48.209 125.741 46.6742 124.59 45.5922L118.222 39.3472V20.5922C120.147 20.25 121.617 18.539 121.617 16.4657V14.8001C121.617 12.4852 119.785 10.6032 117.531 10.6032H85.0355C85.785 9.63701 86.2552 8.42927 86.2552 7.10077C86.2552 3.98079 83.7864 1.44455 80.7543 1.44455H74.7734C74.1562 1.44455 73.6517 1.95784 73.6517 2.59693V10.6032H69.2235C66.9703 10.6032 65.1383 12.4852 65.1383 14.8001V16.4657C65.1383 18.6648 66.7988 20.4563 68.9002 20.6274L65.3685 36.0662H57.6437V19.3291C57.6437 18.695 57.1441 18.1767 56.522 18.1767H54.1267V9.27469C54.1267 7.19638 54.9545 5.27407 56.3995 3.99589L57.3645 3.14041L58.6381 2.01319C59.1083 1.60055 59.1573 0.870876 58.7508 0.387783C58.3442 -0.0953103 57.6388 -0.145633 57.1686 0.272042L54.9349 2.25474C52.9952 3.97073 51.8832 6.53213 51.8832 9.27972V18.1817H49.4879C48.8707 18.1817 48.3662 18.695 48.3662 19.3341V36.0713H43.6637C40.4308 36.0713 37.8052 38.683 37.6191 41.959C36.757 41.3199 35.7038 40.9324 34.5576 40.9324C31.6529 40.9324 29.2918 43.3579 29.2918 46.342V47.3585L22.1696 54.4741C21.3173 53.5784 20.1417 53.0198 18.8387 52.9745L11.1237 38.5371C10.9278 38.1697 10.5506 37.9382 10.1391 37.9382H4.61376C4.28557 37.9382 3.97207 38.0892 3.76144 38.3408C3.55081 38.5974 3.45774 38.9396 3.51162 39.2718L5.62773 52.6273C6.83763 60.2461 6.3086 68.1718 4.10922 75.5541L0.0484594 89.1109ZM55.3856 36.0713H50.5949V20.4865H55.3856V36.0713ZM83.9971 7.09574C83.9971 8.94256 82.5324 10.4472 80.7347 10.4472H75.8706V3.74428H80.7347C82.5324 3.74428 83.9971 5.24891 83.9971 7.09574ZM117.517 18.3629H69.2039C68.1851 18.3629 67.3572 17.5124 67.3572 16.4657V14.8001C67.3572 13.7534 68.1851 12.9029 69.2039 12.9029H117.517C118.536 12.9029 119.363 13.7534 119.363 14.8001V16.4657C119.363 17.5124 118.536 18.3629 117.517 18.3629ZM92.9954 58.4999H77.4185V40.9928H92.9954V46.2867H88.5673C87.9501 46.2867 87.4455 46.8 87.4455 47.4391C87.4455 48.0782 87.9452 48.5914 88.5673 48.5914H92.9954V58.5049V58.4999ZM91.9472 38.688V20.6626H104.237V33.4545C104.237 36.338 101.955 38.688 99.1429 38.688H91.9472ZM77.4185 38.688V20.6626H89.7086V38.688H77.4185ZM50.9329 68.2624H113.113C121.166 68.2624 127.72 74.9955 127.72 83.2685C127.72 91.5415 121.166 98.2746 113.113 98.2746H103.38V94.1431C103.38 93.5091 102.88 92.9907 102.258 92.9907C101.636 92.9907 101.137 93.504 101.137 94.1431V98.2746H95.283V94.1431C95.283 93.5091 94.7833 92.9907 94.1612 92.9907C93.5391 92.9907 93.0395 93.504 93.0395 94.1431V98.2746H87.1859V94.1431C87.1859 93.5091 86.6863 92.9907 86.0642 92.9907C85.4421 92.9907 84.9425 93.504 84.9425 94.1431V98.2746H79.0889V94.1431C79.0889 93.5091 78.5892 92.9907 77.9671 92.9907C77.345 92.9907 76.8454 93.504 76.8454 94.1431V98.2746H70.9918V94.1431C70.9918 93.5091 70.4922 92.9907 69.8701 92.9907C69.248 92.9907 68.7484 93.504 68.7484 94.1431V98.2746H62.8948V94.1431C62.8948 93.5091 62.3952 92.9907 61.7731 92.9907C61.151 92.9907 60.6513 93.504 60.6513 94.1431V98.2746H50.9231C42.8702 98.2746 36.3161 91.5415 36.3161 83.2685C36.3161 74.9955 42.8702 68.2624 50.9231 68.2624H50.9329ZM39.8087 42.3163C39.8087 40.1423 41.5329 38.371 43.649 38.371H66.2355C66.7547 38.371 67.2054 38.0036 67.3229 37.4853L71.1682 20.6626H75.1702V59.6472C75.1702 60.2813 75.6698 60.7996 76.2919 60.7996H94.1122C94.7294 60.7996 95.234 60.2863 95.234 59.6472V40.9878H99.1429C103.189 40.9878 106.476 37.6111 106.476 33.4545V20.6626H115.964V39.8354C115.964 40.1524 116.086 40.4493 116.312 40.6657L123.047 47.268C123.747 47.9322 124.144 48.8481 124.144 49.7992V62.5408C124.144 64.4178 122.655 65.9526 120.823 65.9526H43.556C41.4888 65.9526 39.8087 64.2266 39.8087 62.103V42.3112V42.3163ZM31.5206 46.3471C31.5206 44.6361 32.8775 43.2422 34.5478 43.2422C36.2182 43.2422 37.5701 44.6361 37.5701 46.3471V60.6537C37.5701 62.3646 36.2133 63.7586 34.5478 63.7586C32.8824 63.7586 31.5206 62.3646 31.5206 60.6537V46.3471ZM23.3256 56.5222L29.2772 50.5741V60.6537C29.2772 61.2022 29.38 61.7205 29.527 62.2187L23.5656 67.6485V58.0118C23.5656 57.4884 23.4677 56.9953 23.3207 56.5222H23.3256ZM15.9682 70.7081V58.0118C15.9682 56.4971 17.1683 55.2642 18.6476 55.2642C20.127 55.2642 21.3271 56.4971 21.3271 58.0118V70.7081C21.3271 72.2278 20.127 73.4607 18.6476 73.4607C17.1683 73.4607 15.9682 72.2278 15.9682 70.7081ZM2.63481 88.2957L6.23513 76.2334C8.54227 68.519 9.09089 60.231 7.8271 52.265L5.92163 40.243H9.46316L16.5315 53.4677C14.8808 54.2829 13.7297 56.0039 13.7297 58.0067V70.703C13.7297 72.726 14.8955 74.4571 16.5707 75.2673L9.74237 88.2906H2.63481V88.2957Z" fill="#231F20"/>
<path d="M51.2433 74.2437C46.531 74.2437 42.6956 78.1839 42.6956 83.0249C42.6956 87.8659 46.531 91.8061 51.2433 91.8061C55.0591 91.8061 58.3606 89.2145 59.4187 85.5259H104.866C105.929 89.2145 109.23 91.8061 113.046 91.8061C117.758 91.8061 121.589 87.8659 121.589 83.0249C121.589 78.1839 117.754 74.2437 113.046 74.2437H51.2433ZM51.2433 76.5484H113.046C116.524 76.5484 119.35 79.457 119.35 83.0249C119.35 86.5927 116.524 89.5013 113.046 89.5013C109.999 89.5013 107.394 87.257 106.855 84.1672C106.757 83.6187 106.296 83.2161 105.753 83.2161H58.537C57.9932 83.2161 57.5328 83.6187 57.4348 84.1672C56.896 87.257 54.2949 89.5013 51.2433 89.5013C47.7654 89.5013 44.939 86.5927 44.939 83.0249C44.939 79.457 47.7703 76.5484 51.2433 76.5484Z" fill="black"/>
</g>
<defs>
<linearGradient id="paint0_linear_2047_1943" x1="35.2703" y1="71.0261" x2="121.184" y2="92.7311" gradientUnits="userSpaceOnUse">
<stop stop-color="#F7B53C"/>
<stop offset="0.463692" stop-color="#F7B53C"/>
<stop offset="1" stop-color="#FFCD73"/>
</linearGradient>
<clipPath id="clip0_2047_1943">
<rect width="129.959" height="100.584" fill="white"/>
</clipPath>
</defs>
</svg>
