<svg width="18" height="18" viewBox="0 0 18 18" fill="none" xmlns="http://www.w3.org/2000/svg">
<path d="M9.2892 0.017869C9.2892 0.0389795 9.2505 0.323973 9.20124 0.658225C9.15198 0.992476 9.11328 1.29154 9.11328 1.32673C9.11328 1.37599 9.16606 1.3971 9.38772 1.43228C10.4644 1.60468 11.7627 2.11134 12.7021 2.7341C13.2791 3.11761 13.645 3.41316 14.1235 3.88815C15.362 5.11257 16.1748 6.59383 16.5548 8.31083C16.6181 8.61341 16.6392 8.66267 16.699 8.65563C16.8714 8.64156 17.9657 8.45508 17.9868 8.43749C18.0009 8.42693 17.9727 8.24046 17.927 8.02583C17.262 4.95424 15.2283 2.34707 12.4136 0.964329C11.5234 0.524524 10.6227 0.221938 9.78178 0.0776825C9.59883 0.0460167 9.41235 0.0108318 9.37013 0.000276566C9.32439 -0.0102787 9.2892 -0.00324154 9.2892 0.017869Z" fill="white"/>
<path d="M2.75872 1.75172C2.41743 1.82209 2.26262 1.94172 1.35838 2.83892C0.879873 3.31391 0.429513 3.78538 0.366181 3.88741C-0.267138 4.8585 -0.0771422 6.46995 0.922094 8.64082C2.04447 11.0685 4.05702 13.5174 6.36863 15.2625C7.73027 16.2899 9.35227 17.173 10.6963 17.6234C11.8081 17.9928 12.8531 18.0984 13.5181 17.9049C14.0177 17.7606 14.1268 17.6762 15.119 16.691C15.9529 15.8607 16.0514 15.7481 16.1534 15.5299C16.2519 15.3188 16.2695 15.2449 16.2695 15.0162C16.2695 14.7875 16.2519 14.7136 16.1534 14.5025C16.0479 14.2774 15.9458 14.1648 14.7671 12.9896C13.7292 11.9552 13.4583 11.7019 13.3 11.628C13.0326 11.4978 12.7827 11.4556 12.554 11.4978C12.1741 11.5717 12.0298 11.6772 11.1502 12.5428C10.6928 12.9931 10.2917 13.3626 10.26 13.3626C10.1721 13.3626 9.34523 12.9368 9.02505 12.7257C7.77953 11.9165 6.36863 10.5408 5.4644 9.26007C5.15477 8.82026 5.01052 8.57749 4.80293 8.14824C4.67275 7.88084 4.64108 7.78584 4.66219 7.70844C4.67627 7.6451 4.97181 7.32141 5.48902 6.80068C6.2103 6.07588 6.30882 5.96329 6.40382 5.74867C6.59029 5.34405 6.54807 4.95702 6.28419 4.55592C6.21734 4.45388 5.61921 3.83112 4.95422 3.16965C3.87054 2.08949 3.72277 1.95579 3.5187 1.86079C3.26889 1.74469 2.9839 1.70598 2.75872 1.75172Z" fill="white"/>
<path d="M9.10239 3.68505C9.05313 3.93838 8.92646 4.95521 8.94054 4.96928C8.94757 4.97984 9.08128 5.0115 9.23609 5.04317C11.041 5.41612 12.4801 6.81998 12.9129 8.62845C12.9516 8.77975 12.9832 8.90993 12.9903 8.91345C13.0078 8.92752 14.3202 8.69531 14.3378 8.67771C14.3624 8.6566 14.3026 8.35754 14.2076 8.03384C13.5743 5.7926 11.6884 4.0756 9.38738 3.64283L9.11998 3.59357L9.10239 3.68505Z" fill="white"/>
</svg>
