<svg width="26" height="26" viewBox="0 0 26 26" fill="none" xmlns="http://www.w3.org/2000/svg">
<path d="M16.9118 6H9.08824C7.38528 6 6 7.38528 6 9.08824V16.9118C6 18.6147 7.38528 20 9.08824 20H16.9118C18.6147 20 20 18.6147 20 16.9118V9.08824C20 7.38528 18.6147 6 16.9118 6ZM13 16.8603C10.8714 16.8603 9.13971 15.1286 9.13971 13C9.13971 10.8714 10.8714 9.13971 13 9.13971C15.1286 9.13971 16.8603 10.8714 16.8603 13C16.8603 15.1286 15.1286 16.8603 13 16.8603ZM17.4265 9.34559C17 9.34559 16.6544 8.99997 16.6544 8.57353C16.6544 8.14709 17 7.80147 17.4265 7.80147C17.8529 7.80147 18.1985 8.14709 18.1985 8.57353C18.1985 8.99997 17.8529 9.34559 17.4265 9.34559Z" fill="#FAB709"/>
<path d="M19.1445 0H6.85547C3.07544 0 0 3.07544 0 6.85547V19.1445C0 22.9246 3.07544 26 6.85547 26H19.1445C22.9246 26 26 22.9246 26 19.1445V6.85547C26 3.07544 22.9246 0 19.1445 0ZM21.4297 16.8594C21.4297 19.3794 19.3794 21.4297 16.8594 21.4297H9.14062C6.62061 21.4297 4.57031 19.3794 4.57031 16.8594V9.14062C4.57031 6.62061 6.62061 4.57031 9.14062 4.57031H16.8594C19.3794 4.57031 21.4297 6.62061 21.4297 9.14062V16.8594Z" fill="#FAB709"/>
</svg>
