<svg width="179" height="38" viewBox="0 0 179 38" fill="none" xmlns="http://www.w3.org/2000/svg">
<path d="M40.2737 0.748648V1.83849H38.9797C38.333 1.83849 38.2309 2.00842 38.2309 2.48518C38.2309 2.68934 38.2651 2.92771 38.2651 3.26817V16.7851C38.2651 20.4623 38.3672 21.2111 39.8654 21.2111H41.1593V22.3345H32.4431V21.2111H33.7028C34.3838 21.2111 34.4522 21.0405 34.4522 20.5302C34.4522 20.3602 34.4522 20.1218 34.4522 19.815V6.29809C34.4522 2.62089 34.3159 1.83789 32.8178 1.83789H31.7964V0.748047H40.2737V0.748648Z" fill="black"/>
<path d="M48.9884 0.748648L56.0366 15.6959C56.1387 15.8658 56.2065 15.9685 56.275 15.9685C56.3428 15.9685 56.3771 15.8664 56.4449 15.6959L62.9142 0.748648H68.5664V1.83849H67.1361C66.6251 1.83849 66.5572 2.00841 66.5572 2.5194C66.5572 2.6557 66.5572 2.85986 66.5572 3.06402V15.7301C66.5572 15.9006 66.5572 16.0363 66.5572 16.1726C66.5572 19.8156 66.5915 21.2117 68.1917 21.2117H69.4166V22.3351H60.8367V21.2117H62.2663C62.913 21.2117 62.9473 20.9391 62.9473 20.1218C62.9473 20.054 62.9473 19.9855 62.9473 19.8835V4.28955L55.4908 21.2795C55.2524 21.7905 55.0825 22.0967 54.9119 22.0967C54.7756 22.0967 54.6393 21.8241 54.4009 21.348L46.9787 4.93685V15.0143C46.9787 19.6109 47.0129 21.2111 48.5789 21.2111H50.4517V22.3345H43.4378V21.2111H44.6975C45.5148 21.2111 45.6511 20.7001 45.6511 19.0662V6.05971C45.6511 5.85556 45.6511 5.65139 45.6511 5.48086C45.6511 2.68873 45.5832 1.83789 43.6762 1.83789H42.6548V0.748047H48.9884V0.748648Z" fill="black"/>
<path d="M80.7196 0.749023C85.5544 0.749023 88.2439 3.06439 88.2439 6.6053C88.2439 9.83996 85.3497 12.4958 80.9237 12.4958C80.0386 12.4958 79.0173 12.3595 77.7911 12.0875V16.7861C77.7911 20.2927 77.8253 21.212 79.3913 21.212H80.6853V22.3355H71.9691V21.212H73.2288C73.944 21.212 73.9776 20.9737 73.9776 20.0544C73.9776 19.9865 73.9776 19.9181 73.9776 19.816V6.29907C73.9776 2.79239 73.8755 1.83886 72.3432 1.83886H71.3218V0.749023H80.7196ZM79.8687 11.3381C82.4903 11.3381 84.3289 9.49951 84.3289 6.91214C84.3289 4.08638 81.9793 1.94094 78.9494 1.94094C78.1322 1.94094 77.7917 2.04302 77.7917 2.45193V10.964C78.5747 11.2018 79.2556 11.3381 79.8687 11.3381Z" fill="black"/>
<path d="M106.46 0.748873L106.051 3.57463C105.983 3.98295 105.915 4.15348 105.643 4.15348C105.166 4.15348 105.064 3.30203 104.485 2.85949C103.804 2.3485 102.034 1.97442 99.2757 1.97442H97.1644C96.4157 1.97442 96.3814 2.14435 96.3814 2.72319C96.3814 2.82527 96.3814 2.92734 96.3814 3.02941V9.77076H99.2414C102.408 9.77076 103.293 9.63446 103.293 8.27262V7.3191H104.315V13.2432H103.293V12.1198C103.293 11.0642 102.545 10.9963 100.127 10.9963C99.8209 10.9963 99.5483 10.9963 99.2078 10.9963H96.382V16.682C96.382 20.2914 96.4499 21.108 97.9823 21.108H99.8551C101.83 21.108 103.6 20.7333 104.758 20.2908C105.95 19.814 106.358 18.6221 107.005 18.6221C107.175 18.6221 107.345 18.7927 107.345 18.9626C107.345 19.0304 107.345 19.1667 107.277 19.4051L106.426 22.3329H90.5594V21.2437H91.8192C92.5001 21.2437 92.5679 21.0053 92.5679 20.3586C92.5679 20.2223 92.5679 20.0182 92.5679 19.814V6.29712C92.5679 2.75621 92.4659 1.83691 90.9335 1.83691H89.9121V0.74707H106.46V0.748873Z" fill="black"/>
<path d="M117.799 0.749023C123.077 0.749023 125.801 3.03016 125.801 6.84368C125.801 9.32897 124.064 11.3039 121 11.9169C122.123 13.7213 123.554 15.8668 125.324 18.2842C126.788 20.2933 127.197 21.2126 128.49 21.2126H129.171V22.3361H125.29C125.187 22.3361 125.085 22.3361 124.983 22.3361C124.2 22.3361 123.791 22.2683 123.043 21.2805C122.396 20.3954 120.489 17.5354 117.697 12.5985C117.459 12.5985 117.221 12.6327 116.88 12.6327C116.472 12.6327 115.927 12.5985 115.314 12.5648V16.7867C115.314 20.2933 115.382 21.2126 116.914 21.2126H118.242V22.3361H109.628V21.2126H110.888C111.603 21.2126 111.636 20.9743 111.636 20.055C111.636 19.9871 111.636 19.9187 111.636 19.8166V6.29967C111.636 2.79299 111.534 1.83947 110.002 1.83947H108.98V0.749624H117.799V0.749023ZM116.846 11.4402C120.081 11.4402 121.987 9.60159 121.987 7.14992C121.987 4.08578 119.74 1.94034 116.199 1.94034C115.585 1.94034 115.314 2.07664 115.314 2.51917V11.3375C115.927 11.406 116.438 11.4402 116.846 11.4402Z" fill="black"/>
<path d="M137.514 0.748648V1.83849H136.22C135.573 1.83849 135.471 2.00842 135.471 2.48518C135.471 2.68934 135.505 2.92771 135.505 3.26817V16.7851C135.505 20.4623 135.608 21.2111 137.106 21.2111H138.4V22.3345H129.683V21.2111H130.943C131.624 21.2111 131.692 21.0405 131.692 20.5302C131.692 20.3602 131.692 20.1218 131.692 19.815V6.29809C131.692 2.62089 131.556 1.83789 130.058 1.83789H129.036V0.748047H137.514V0.748648Z" fill="black"/>
<path d="M160.016 22.3359H151.504V21.2124H152.968C153.445 21.2124 153.615 21.1446 153.615 20.9062C153.615 20.7699 153.581 20.6336 153.513 20.4636L151.504 14.4368H144.251L142.685 18.5566C142.345 19.4759 142.107 20.0889 142.107 20.4294C142.107 21.1103 142.481 21.2124 143.434 21.2124H145.102V22.3359H138.292V21.2124H139.348C139.927 21.2124 140.131 20.974 140.369 20.3952L148.745 0.510991L150.924 0.0342302C151.061 4.10513e-06 151.197 0 151.367 0C151.639 0 151.809 0.136303 151.809 0.374685C151.809 0.782997 151.094 0.885085 151.094 1.60023C151.094 1.80439 151.162 2.00854 151.231 2.24693L157.529 19.8836C157.904 20.9734 158.278 21.2118 158.993 21.2118H160.015V22.3359H160.016ZM144.763 13.1428H150.96L148.1 5.07327L144.763 13.1428Z" fill="black"/>
<path d="M169.14 0.749023V1.83886H167.846C167.2 1.83886 167.098 2.0088 167.098 2.48556C167.098 2.68971 167.132 2.92808 167.132 3.26854V16.6834C167.132 18.6925 167.268 19.8838 167.37 20.2585C167.643 21.11 167.847 21.11 168.732 21.11H170.639C173.226 21.11 175.201 20.6332 176.189 20.1228C177.312 19.544 177.278 18.6925 177.755 18.6925C177.959 18.6925 178.129 18.8967 178.129 19.1351C178.129 19.1693 178.129 19.3734 178.027 19.6797L177.244 22.3355H161.31V21.2463H162.57C163.251 21.2463 163.318 21.0764 163.318 20.5311C163.318 20.3612 163.318 20.1228 163.318 19.816V6.29907C163.318 2.62186 163.182 1.83886 161.684 1.83886H160.663V0.749023H169.14Z" fill="black"/>
<path d="M37.7492 27.7584L37.6003 28.7876C37.5757 28.9365 37.5505 28.9984 37.4514 28.9984C37.2779 28.9984 37.2406 28.6885 37.0299 28.527C36.7819 28.3409 36.137 28.2046 35.133 28.2046H34.3644C34.0918 28.2046 34.0792 28.2664 34.0792 28.4772C34.0792 28.5144 34.0792 28.5516 34.0792 28.5889V31.0435H35.1204C36.2733 31.0435 36.5957 30.9937 36.5957 30.4983V30.1512H36.968V32.3087H36.5957V31.8998C36.5957 31.5155 36.3231 31.4909 35.4429 31.4909C35.3312 31.4909 35.2321 31.4909 35.1078 31.4909H34.0786V33.5612C34.0786 34.8756 34.1032 35.1729 34.6611 35.1729H35.3432C36.0625 35.1729 36.7068 35.0366 37.1284 34.875C37.5625 34.7015 37.7114 34.2674 37.9468 34.2674C38.0086 34.2674 38.0711 34.3292 38.0711 34.3911C38.0711 34.4157 38.0711 34.4655 38.0465 34.552L37.7366 35.6184H31.959V35.2215H32.4178C32.6658 35.2215 32.6904 35.1344 32.6904 34.8991C32.6904 34.8492 32.6904 34.7748 32.6904 34.7009V29.779C32.6904 28.4898 32.6531 28.1547 32.0953 28.1547H31.7236V27.7578H37.7492V27.7584Z" fill="black"/>
<path d="M45.1981 36.7604C45.5824 37.1075 45.9547 37.281 46.3636 37.281C46.5125 37.281 46.6488 37.2438 46.7977 37.1939L47.1321 37.0696L47.2564 37.3921L46.6734 37.6401C46.103 37.8881 45.5698 37.9997 45.2353 37.9997C44.7766 37.9997 44.3304 37.8016 43.9707 37.4419L42.3465 35.8177C41.6524 35.7931 41.0573 35.5943 40.5613 35.2346C39.3712 34.367 38.8008 33.3252 38.8008 31.9243C38.8008 30.5108 39.4085 29.2216 40.4749 28.366C41.1816 27.7956 42.0745 27.5229 43.1529 27.5229C44.2565 27.5229 45.1242 27.8208 45.8063 28.4651C46.6122 29.221 47.0337 30.2382 47.0337 31.4656C47.0337 33.5485 45.8436 35.1728 43.9959 35.6688L45.1981 36.7604ZM45.5697 32.0612C45.5697 29.5693 44.367 27.9943 42.7554 27.9943C41.2555 27.9943 40.2383 29.2342 40.2383 31.3419C40.2383 32.5572 40.5481 33.5738 41.1558 34.3423C41.6638 34.9992 42.2468 35.3343 42.6683 35.3343C42.941 35.3343 43.1889 35.2598 43.3877 35.1109L43.5985 35.2971C44.8138 35.0245 45.5697 33.859 45.5697 32.0612Z" fill="black"/>
<path d="M51.0273 27.7584V28.1553H50.5559C50.3205 28.1553 50.2833 28.2172 50.2833 28.3907C50.2833 28.4652 50.2959 28.5516 50.2959 28.6759V32.7921C50.2959 34.4781 50.9156 35.272 52.3417 35.272C53.9041 35.272 54.7591 34.3418 54.7591 32.5567V29.7297C54.7591 29.1839 54.7219 28.7876 54.66 28.5516C54.561 28.1799 54.5111 28.1673 54.2259 28.1673C54.2013 28.1673 54.1887 28.1673 54.1641 28.1673H53.7053V27.7584H56.0609V28.1673H55.5403C55.2677 28.1673 55.2551 28.2172 55.2551 28.5024V32.5441C55.2551 34.7135 54.0896 35.8418 51.9202 35.8418C49.887 35.8418 48.9076 34.8744 48.9076 32.8911V29.779C48.9076 28.4399 48.8578 28.1547 48.3126 28.1547H47.9409V27.7578H51.0273V27.7584Z" fill="black"/>
<path d="M60.0523 27.7584V28.1553H59.5809C59.3456 28.1553 59.3083 28.2172 59.3083 28.3907C59.3083 28.4652 59.3209 28.5516 59.3209 28.6759V33.5979C59.3209 34.9369 59.3582 35.2095 59.9034 35.2095H60.3747V35.6184H57.2007V35.2095H57.6595C57.9075 35.2095 57.9321 35.1477 57.9321 34.9615C57.9321 34.8997 57.9321 34.8126 57.9321 34.7009V29.779C57.9321 28.4399 57.8822 28.1547 57.337 28.1547H56.9653V27.7578H60.0523V27.7584Z" fill="black"/>
<path d="M64.4674 27.758C66.228 27.758 67.2073 28.6011 67.2073 29.8903C67.2073 31.0684 66.1535 32.0351 64.5419 32.0351C64.2194 32.0351 63.8477 31.9853 63.401 31.8862V33.5969C63.401 34.8741 63.4136 35.2085 63.9834 35.2085H64.4548V35.6174H61.2808V35.2085H61.7395C62.0001 35.2085 62.0121 35.1215 62.0121 34.787C62.0121 34.7624 62.0121 34.7372 62.0121 34.6999V29.778C62.0121 28.5008 61.9749 28.1537 61.4171 28.1537H61.0454V27.7568H64.4674V27.758ZM64.1576 31.6142C65.1123 31.6142 65.7818 30.9447 65.7818 30.0026C65.7818 28.9734 64.9262 28.1922 63.8231 28.1922C63.5253 28.1922 63.4016 28.2294 63.4016 28.3783V31.4779C63.6862 31.5643 63.9342 31.6142 64.1576 31.6142Z" fill="black"/>
<path d="M69.9987 27.7578L72.5651 33.201C72.6023 33.2628 72.627 33.3 72.6522 33.3C72.6774 33.3 72.6894 33.2628 72.714 33.201L75.0696 27.7578H77.128V28.1547H76.6074C76.4212 28.1547 76.3966 28.2166 76.3966 28.4027C76.3966 28.4525 76.3966 28.5264 76.3966 28.6009V33.213C76.3966 33.2748 76.3966 33.3247 76.3966 33.3739C76.3966 34.7003 76.4092 35.2089 76.9917 35.2089H77.4378V35.6178H74.3136V35.2089H74.8342C75.0696 35.2089 75.0822 35.1098 75.0822 34.812C75.0822 34.7874 75.0822 34.7622 75.0822 34.7249V29.0464L72.367 35.2335C72.2799 35.4197 72.218 35.5313 72.1562 35.5313C72.1064 35.5313 72.0571 35.4323 71.97 35.2587L69.2674 29.283V32.953C69.2674 34.6271 69.28 35.2095 69.8498 35.2095H70.532V35.6184H67.9776V35.2095H68.4363C68.7342 35.2095 68.7834 35.0234 68.7834 34.4283V29.6919C68.7834 29.6174 68.7834 29.543 68.7834 29.4811C68.7834 28.4645 68.7588 28.1547 68.0641 28.1547H67.6924V27.7578H69.9987Z" fill="black"/>
<path d="M84.154 27.7584L84.0051 28.7876C83.9805 28.9365 83.9553 28.9984 83.8562 28.9984C83.6827 28.9984 83.6454 28.6885 83.4347 28.527C83.1867 28.3409 82.5418 28.2046 81.5378 28.2046H80.7692C80.4966 28.2046 80.484 28.2664 80.484 28.4772C80.484 28.5144 80.484 28.5516 80.484 28.5889V31.0435H81.5252C82.6781 31.0435 83.0005 30.9937 83.0005 30.4983V30.1512H83.3722V32.3087H83.0005V31.8998C83.0005 31.5155 82.7279 31.4909 81.8477 31.4909C81.736 31.4909 81.6369 31.4909 81.5126 31.4909H80.4834V33.5612C80.4834 34.8756 80.508 35.1729 81.0659 35.1729H81.748C82.4673 35.1729 83.1116 35.0366 83.5331 34.875C83.9673 34.7015 84.1162 34.2674 84.3516 34.2674C84.4134 34.2674 84.4759 34.3292 84.4759 34.3911C84.4759 34.4157 84.4759 34.4655 84.4512 34.552L84.1414 35.6184H78.3638V35.2215H78.8225C79.0705 35.2215 79.0951 35.1344 79.0951 34.8991C79.0951 34.8492 79.0951 34.7748 79.0951 34.7009V29.779C79.0951 28.4898 79.0579 28.1547 78.5001 28.1547H78.1284V27.7578H84.154V27.7584Z" fill="black"/>
<path d="M87.0451 27.7578L91.9425 33.3373V29.8288C91.9425 28.6015 91.9052 28.1547 91.3594 28.1547H90.8142V27.7578H93.1698V28.1547H92.6492C92.4511 28.1547 92.4384 28.1919 92.4384 28.3529C92.4384 28.3775 92.4384 28.4273 92.4384 28.4646V35.5193C92.4384 35.631 92.4385 35.6929 92.3766 35.6929C92.3268 35.6929 92.2775 35.6556 92.2277 35.5938L86.5366 29.2211V33.6471C86.5366 34.7255 86.6356 35.2095 87.0325 35.2095H87.7885V35.6184H85.2341V35.2095H85.7175C85.9781 35.2095 86.04 35.1849 86.04 34.8871V29.6174C86.04 28.6135 85.879 28.1547 85.1969 28.1547H84.9243V27.7578H87.0451Z" fill="black"/>
<path d="M100.385 27.758L100.719 28.7992C100.744 28.8611 100.756 28.9109 100.756 28.9482C100.756 29.0472 100.694 29.1091 100.607 29.1091C100.421 29.1091 100.347 28.7866 100.049 28.6005C99.5907 28.3153 98.884 28.2162 97.8674 28.2036V33.5969C97.8674 34.8861 97.892 35.2085 98.4498 35.2085H99.1319V35.6174H95.301V35.2085H96.2059C96.4665 35.2085 96.4785 35.1215 96.4785 34.787C96.4785 34.7624 96.4785 34.7372 96.4785 34.6999V28.203C95.4373 28.2156 94.7054 28.3273 94.2718 28.6119C93.9866 28.798 93.9122 29.1079 93.7266 29.1079C93.6396 29.1079 93.5903 29.046 93.5903 28.9469C93.5903 28.9097 93.5903 28.8599 93.6149 28.798L93.962 27.7568H100.385V27.758Z" fill="black"/>
<path d="M107.45 27.7578C109.372 27.7578 110.364 28.5882 110.364 29.9771C110.364 30.882 109.731 31.6013 108.615 31.8247C109.024 32.4816 109.545 33.2628 110.19 34.1431C110.723 34.8745 110.872 35.2095 111.342 35.2095H111.59V35.6184H110.177C110.14 35.6184 110.102 35.6184 110.065 35.6184C109.78 35.6184 109.631 35.5938 109.359 35.2341C109.123 34.9117 108.428 33.8705 107.412 32.0727C107.325 32.0727 107.238 32.0853 107.114 32.0853C106.965 32.0853 106.767 32.0727 106.544 32.0607V33.5979C106.544 34.875 106.568 35.2095 107.127 35.2095H107.61V35.6184H104.473V35.2095H104.932C105.193 35.2095 105.205 35.1224 105.205 34.788C105.205 34.7634 105.205 34.7381 105.205 34.7009V29.779C105.205 28.5018 105.167 28.1547 104.609 28.1547H104.238V27.7578H107.45ZM107.103 31.6512C108.281 31.6512 108.975 30.9817 108.975 30.0888C108.975 28.9731 108.156 28.1919 106.867 28.1919C106.644 28.1919 106.545 28.2418 106.545 28.4027V31.614C106.768 31.6386 106.954 31.6512 107.103 31.6512Z" fill="black"/>
<path d="M117.568 27.7584L117.419 28.7876C117.395 28.9365 117.37 28.9984 117.27 28.9984C117.097 28.9984 117.06 28.6885 116.849 28.527C116.601 28.3409 115.956 28.2046 114.952 28.2046H114.184C113.911 28.2046 113.898 28.2664 113.898 28.4772C113.898 28.5144 113.898 28.5516 113.898 28.5889V31.0435H114.939C116.092 31.0435 116.415 30.9937 116.415 30.4983V30.1512H116.787V32.3087H116.415V31.8998C116.415 31.5155 116.142 31.4909 115.262 31.4909C115.15 31.4909 115.051 31.4909 114.927 31.4909H113.898V33.5612C113.898 34.8756 113.922 35.1729 114.48 35.1729H115.162C115.882 35.1729 116.526 35.0366 116.947 34.875C117.382 34.7015 117.53 34.2674 117.766 34.2674C117.828 34.2674 117.89 34.3292 117.89 34.3911C117.89 34.4157 117.89 34.4655 117.865 34.552L117.555 35.6184H111.777V35.2215H112.236C112.484 35.2215 112.509 35.1344 112.509 34.8991C112.509 34.8492 112.509 34.7748 112.509 34.7009V29.779C112.509 28.4898 112.472 28.1547 111.914 28.1547H111.542V27.7578H117.568V27.7584Z" fill="black"/>
<path d="M120.456 27.7578L125.354 33.3373V29.8288C125.354 28.6015 125.316 28.1547 124.771 28.1547H124.225V27.7578H126.58V28.1547H126.06C125.862 28.1547 125.849 28.1919 125.849 28.3529C125.849 28.3775 125.849 28.4273 125.849 28.4646V35.5193C125.849 35.631 125.849 35.6929 125.787 35.6929C125.737 35.6929 125.688 35.6556 125.638 35.5938L119.947 29.2211V33.6471C119.947 34.7255 120.046 35.2095 120.443 35.2095H121.2V35.6184H118.645V35.2095H119.129C119.389 35.2095 119.451 35.1849 119.451 34.8871V29.6174C119.451 28.6135 119.29 28.1547 118.608 28.1547H118.335V27.7578H120.456Z" fill="black"/>
<path d="M133.798 27.758L134.132 28.7992C134.157 28.8611 134.169 28.9109 134.169 28.9482C134.169 29.0472 134.107 29.1091 134.02 29.1091C133.834 29.1091 133.76 28.7866 133.463 28.6005C133.004 28.3153 132.297 28.2162 131.28 28.2036V33.5969C131.28 34.8861 131.305 35.2085 131.864 35.2085H132.546V35.6174H128.715V35.2085H129.62C129.88 35.2085 129.892 35.1215 129.892 34.787C129.892 34.7624 129.892 34.7372 129.892 34.6999V28.203C128.85 28.2156 128.119 28.3273 127.686 28.6119C127.4 28.798 127.326 29.1079 127.14 29.1079C127.053 29.1079 127.003 29.046 127.003 28.9469C127.003 28.9097 127.003 28.8599 127.028 28.798L127.375 27.7568H133.798V27.758Z" fill="black"/>
<path d="M140.903 35.619H137.803V35.2101H138.336C138.51 35.2101 138.572 35.1855 138.572 35.0985C138.572 35.0486 138.559 34.9994 138.534 34.9375L137.803 32.7429H135.162L134.592 34.2428C134.468 34.5779 134.381 34.8006 134.381 34.9249C134.381 35.1729 134.517 35.2101 134.864 35.2101H135.472V35.619H132.992V35.2101H133.377C133.587 35.2101 133.662 35.1231 133.749 34.9123L136.799 27.672L137.592 27.4984C137.642 27.4858 137.691 27.4858 137.753 27.4858C137.852 27.4858 137.914 27.5357 137.914 27.6221C137.914 27.7711 137.653 27.8083 137.653 28.0683C137.653 28.1427 137.678 28.2172 137.703 28.3037L139.997 34.7262C140.133 35.1231 140.269 35.2095 140.53 35.2095H140.902V35.619H140.903ZM135.348 32.2715H137.605L136.564 29.3329L135.348 32.2715Z" fill="black"/>
<path d="M144.224 27.7584V28.1553H143.752C143.517 28.1553 143.48 28.2172 143.48 28.3907C143.48 28.4652 143.492 28.5516 143.492 28.6759V33.5607C143.492 34.292 143.542 34.7261 143.579 34.8624C143.678 35.1723 143.753 35.1723 144.075 35.1723H144.769C145.712 35.1723 146.431 34.9987 146.791 34.8126C147.199 34.6018 147.187 34.292 147.361 34.292C147.435 34.292 147.497 34.3665 147.497 34.4535C147.497 34.4661 147.497 34.5406 147.46 34.6517L147.175 35.619H141.373V35.2221H141.831C142.079 35.2221 142.104 35.1603 142.104 34.9615C142.104 34.8997 142.104 34.8126 142.104 34.7009V29.779C142.104 28.4399 142.054 28.1547 141.509 28.1547H141.137V27.7578H144.224V27.7584Z" fill="black"/>
<path d="M152.221 28.6764C152.221 28.701 152.221 28.7263 152.221 28.7509C152.221 28.8746 152.196 28.937 152.097 28.937C151.948 28.937 151.899 28.8253 151.787 28.6392C151.515 28.2051 151.068 27.9943 150.411 27.9943C149.506 27.9943 148.837 28.602 148.837 29.3087C148.837 29.9782 149.407 30.3751 150.485 30.8459C151.998 31.5028 152.792 32.0858 152.792 33.3006C152.792 34.6642 151.539 35.8549 149.63 35.8549C149.035 35.8549 148.341 35.7312 147.634 35.458L147.474 34.3916C147.474 34.3544 147.461 34.3297 147.461 34.3045C147.461 34.1682 147.523 34.0938 147.61 34.0938C147.734 34.0938 147.796 34.2427 147.944 34.478C148.317 35.0857 148.899 35.3709 149.792 35.3709C150.858 35.3709 151.565 34.7759 151.565 33.9448C151.565 33.2381 151.156 32.7301 150.312 32.3704C149.457 32.0108 148.813 31.7628 148.428 31.4283C147.97 31.0194 147.734 30.5607 147.734 29.9902C147.734 28.5641 148.912 27.5229 150.722 27.5229C151.193 27.5229 151.677 27.5974 152.173 27.7583L152.221 28.6764Z" fill="black"/>
<path d="M159.93 27.7584V28.1553H159.459C159.224 28.1553 159.186 28.2172 159.186 28.3907C159.186 28.4652 159.199 28.5516 159.199 28.6759V33.5979C159.199 34.9369 159.236 35.2095 159.781 35.2095H160.253V35.6184H157.079V35.2095H157.537C157.785 35.2095 157.81 35.1477 157.81 34.9615C157.81 34.8997 157.81 34.8126 157.81 34.7009V29.779C157.81 28.4399 157.76 28.1547 157.215 28.1547H156.843V27.7578H159.93V27.7584Z" fill="black"/>
<path d="M162.893 27.7578L167.791 33.3373V29.8288C167.791 28.6015 167.753 28.1547 167.208 28.1547H166.662V27.7578H169.018V28.1547H168.497C168.299 28.1547 168.287 28.1919 168.287 28.3529C168.287 28.3775 168.287 28.4273 168.287 28.4646V35.5193C168.287 35.631 168.287 35.6929 168.225 35.6929C168.176 35.6929 168.126 35.6556 168.076 35.5938L162.385 29.2211V33.6471C162.385 34.7255 162.484 35.2095 162.881 35.2095H163.637V35.6184H161.082V35.2095H161.566C161.826 35.2095 161.888 35.1849 161.888 34.8871V29.6174C161.888 28.6135 161.727 28.1547 161.045 28.1547H160.772V27.7578H162.893Z" fill="black"/>
<path d="M177.093 28.8369C177.069 29.0351 177.006 29.1222 176.92 29.1222C176.771 29.1222 176.758 28.9486 176.647 28.7253C176.461 28.3284 175.742 27.9687 174.837 27.9687C173.87 27.9687 172.94 28.44 172.332 29.2831C171.824 29.9772 171.564 30.8083 171.564 31.7504C171.564 33.945 172.853 35.3958 174.676 35.3958C175.668 35.3958 176.511 34.9616 176.833 34.4284C176.97 34.193 176.982 33.945 177.156 33.945C177.243 33.945 177.305 33.9949 177.305 34.1186C177.305 34.1432 177.292 34.1804 177.292 34.2177L177.193 35.2841C176.276 35.6558 175.309 35.8545 174.292 35.8545C171.663 35.8545 170.101 34.3912 170.101 32.0482C170.101 30.771 170.572 29.6554 171.465 28.8369C172.395 27.9939 173.585 27.5352 174.812 27.5352C175.556 27.5352 176.337 27.6841 177.192 27.9813L177.093 28.8369Z" fill="black"/>
<path d="M1.07723 35.564C0.374093 33.2144 0.849667 31.7397 2.76933 30.2427C3.00471 30.059 3.24609 29.8819 3.47006 29.6849C4.25606 28.9932 4.22664 28.1051 3.39741 27.4638C3.2569 27.3552 3.09597 27.2711 2.94106 27.1816C2.05598 26.6706 2.03197 26.06 2.92125 25.528C4.0327 24.8639 4.77607 23.9187 5.20239 22.716C5.40114 22.1558 5.58848 21.5872 5.71818 21.0083C6.32764 18.2894 6.5252 15.5411 6.25319 12.7628C6.16853 11.897 5.73139 11.3121 4.91237 11.0431C4.42419 10.8828 4.0393 10.6636 3.96785 10.101C3.89099 9.49751 4.25066 9.18768 4.80608 8.92048C4.16419 8.39208 4.20082 7.68053 4.20623 6.96598C4.21824 5.35255 4.20623 3.73911 4.21164 2.12568C4.21464 1.32707 4.53888 1.00343 5.33209 0.991422C5.81005 0.984217 6.28801 0.992622 6.76597 0.99022C7.13826 0.988419 7.31119 1.16915 7.30819 1.54084C7.30338 2.19834 7.33342 2.85644 7.30099 3.51215C7.27277 4.07838 7.5748 4.17325 8.04076 4.17505C8.52413 4.17746 8.86458 4.08918 8.84296 3.49473C8.82015 2.85824 8.85258 2.21997 8.83396 1.58288C8.82255 1.18418 8.97026 0.989019 9.38037 0.99022C11.1932 0.994423 13.0053 0.992623 14.8181 0.991422C15.1838 0.991422 15.3603 1.14814 15.3501 1.53484C15.3333 2.19174 15.3627 2.84983 15.3423 3.50674C15.3231 4.1084 15.681 4.17445 16.1559 4.17565C16.6315 4.17626 16.9143 4.05917 16.8843 3.50194C16.8501 2.86666 16.8867 2.22716 16.8741 1.59008C16.8657 1.15535 17.065 0.976407 17.4902 0.987816C17.9879 1.00043 18.4863 0.975814 18.9841 0.995028C19.6272 1.02025 19.9689 1.36611 19.9725 2.01761C19.9827 3.88984 20.0031 5.76327 19.9569 7.6343C19.946 8.07684 19.6872 8.51337 19.5377 8.96912C19.6734 9.09101 19.94 9.25193 20.0968 9.48611C20.4582 10.0253 20.1754 10.7483 19.4867 10.9602C18.4527 11.2785 17.9717 11.9546 17.9015 13.012C17.6805 16.3584 17.8901 19.6549 19.0297 22.8391C19.4375 23.9776 20.1718 24.8699 21.225 25.5021C22.1719 26.0708 22.1395 26.658 21.186 27.2207C20.917 27.3798 20.6498 27.5761 20.451 27.8139C19.9965 28.3567 20.0463 29.031 20.5513 29.53C20.7771 29.7528 21.0305 29.9497 21.2833 30.1425C23.3326 31.7067 23.8094 33.1003 23.1147 35.5652C23.1819 35.5904 23.2498 35.6199 23.3206 35.6415C23.9451 35.833 24.2339 36.1837 24.1775 36.6851C24.1246 37.1534 23.6971 37.5053 23.1135 37.5527C22.9747 37.5641 22.8348 37.5551 22.6955 37.5551C15.6245 37.5551 8.55294 37.5551 1.48194 37.5551C1.44231 37.5551 1.40208 37.5551 1.36245 37.5551C0.587857 37.5515 0.103891 37.2561 0.0156237 36.7337C-0.0780478 36.1867 0.246196 35.821 1.07723 35.564Z" fill="#F68F1B"/>
</svg>
