<svg width="24" height="24" viewBox="0 0 24 24" fill="none" xmlns="http://www.w3.org/2000/svg">
<path d="M7.53821 8.6421C9.03882 12.7357 10.5923 14.3691 14.5444 16.1087L12.8317 18.5141C8.29344 16.3414 6.03303 12.6789 4.96844 9.82076L7.53821 8.6421Z" fill="black"/>
<path d="M8.79918 2.98981C9.60159 2.98667 10.2117 3.65435 10.157 4.4104C10.0709 5.60016 10.1626 6.45855 10.4093 7.52256C10.5449 8.10703 10.2382 8.70064 9.75092 9.08298C9.0941 9.59833 8.59231 10.255 8.19349 10.8202C7.64071 11.6037 5.7384 11.5474 5.3177 10.6939C4.4531 8.93976 3.86716 5.70801 5.12973 3.52457C5.32804 3.18161 5.72736 3.00182 6.14113 3.0002L8.79918 2.98981Z" fill="black"/>
<path d="M20.981 15.972C21.0808 15.2201 20.4523 14.5678 19.651 14.5282C18.39 14.4658 17.4987 14.2766 16.4099 13.9173C15.8118 13.72 15.1509 13.9361 14.6904 14.347C14.0697 14.9008 13.3191 15.2923 12.6769 15.5982C11.7869 16.0222 11.6173 17.8125 12.4639 18.3096C14.2039 19.3312 17.5305 20.2692 19.9776 19.348C20.3619 19.2033 20.5989 18.8506 20.6504 18.4628L20.981 15.972Z" fill="black"/>
</svg>
