<svg width="18" height="18" viewBox="0 0 18 18" fill="none" xmlns="http://www.w3.org/2000/svg">
<path d="M17.9373 0.98092L10.322 17.5959C10.2583 17.7351 10.1502 17.8492 10.0147 17.9205C9.87924 17.9917 9.72396 18.016 9.57318 17.9896C9.4224 17.9633 9.28462 17.8876 9.18138 17.7746C9.07814 17.6616 9.01527 17.5176 9.00259 17.365L8.35876 9.64134L0.634986 8.99751C0.482439 8.98484 0.338394 8.92197 0.225378 8.81873C0.112362 8.71549 0.0367488 8.57771 0.0103634 8.42693C-0.016022 8.27615 0.00830856 8.12088 0.07955 7.98539C0.150791 7.84991 0.264926 7.74186 0.404104 7.67814L17.0193 0.0629427C17.1477 0.00407816 17.2911 -0.0140757 17.4302 0.010919C17.5692 0.0359136 17.6973 0.10286 17.7972 0.202768C17.8971 0.302676 17.9641 0.430761 17.9891 0.569824C18.0141 0.708886 17.9961 0.852475 17.9373 0.98092Z" fill="white"/>
</svg>
