<svg width="26" height="24" viewBox="0 0 26 24" fill="none" xmlns="http://www.w3.org/2000/svg">
<path fill-rule="evenodd" clip-rule="evenodd" d="M1.64881e-07 2.8263C-0.000195708 2.26691 0.174129 1.72005 0.500885 1.25502C0.827642 0.789991 1.29212 0.427718 1.83547 0.214108C2.37882 0.000497616 2.97658 -0.0548349 3.55302 0.0551203C4.12945 0.165075 4.6586 0.43537 5.07343 0.831754C5.49015 1.22609 5.77421 1.72942 5.8895 2.27777C6.00478 2.82612 5.94609 3.3947 5.72087 3.91122C5.49566 4.42774 5.1141 4.86887 4.62471 5.17851C4.13532 5.48816 3.56021 5.65233 2.97251 5.65016C2.58243 5.65055 2.1961 5.57782 1.83558 5.4361C1.47506 5.29438 1.14742 5.08646 0.871375 4.82422C0.595332 4.56198 0.376296 4.25056 0.226782 3.90775C0.0772684 3.56494 0.000206991 3.19746 1.64881e-07 2.8263ZM25.9992 14.6976C26.0233 13.2132 25.5133 11.7655 24.5538 10.5947C23.5943 9.424 22.243 8.60058 20.724 8.26107C19.69 8.04947 18.6178 8.07613 17.5968 8.33883C16.5759 8.60152 15.6357 9.09263 14.8547 9.77122V9.17886C14.8547 9.08605 14.8354 8.99415 14.798 8.90843C14.7605 8.82272 14.7057 8.74489 14.6366 8.6794C14.5675 8.61391 14.4854 8.56205 14.3952 8.52681C14.3049 8.49156 14.2083 8.47362 14.1107 8.47402H10.3959C10.2985 8.47382 10.202 8.49191 10.1119 8.52724C10.0219 8.56257 9.94003 8.61446 9.87107 8.67993C9.80212 8.7454 9.74742 8.82317 9.71009 8.90878C9.67277 8.99439 9.65355 9.08617 9.65355 9.17886V23.2937C9.65355 23.6836 9.98611 23.9985 10.3959 23.9985H14.1123C14.5221 23.9985 14.8531 23.6836 14.8531 23.2937V15.3335C14.8357 14.6459 15.0736 13.9746 15.5251 13.4375C15.9765 12.9005 16.6125 12.5321 17.3212 12.3971C17.751 12.3272 18.1916 12.348 18.612 12.4581C19.0324 12.5682 19.4222 12.7648 19.7539 13.034C20.0856 13.3033 20.351 13.6386 20.5315 14.0162C20.7119 14.3939 20.8029 14.8047 20.7981 15.2195V23.2937C20.7981 23.6836 21.1306 23.9985 21.542 23.9985H25.2568C25.3543 23.9987 25.4508 23.9806 25.5408 23.9453C25.6309 23.9099 25.7127 23.8581 25.7817 23.7926C25.8506 23.7271 25.9053 23.6493 25.9426 23.5637C25.98 23.4781 25.9992 23.3863 25.9992 23.2937V14.6976ZM5.94186 9.18036V23.2952C5.94186 23.388 5.9226 23.4799 5.88517 23.5656C5.84775 23.6513 5.7929 23.7291 5.72378 23.7946C5.65466 23.8601 5.57263 23.912 5.48239 23.9472C5.39215 23.9825 5.29549 24.0004 5.19795 24H1.48153C1.28492 24 1.09634 23.9258 0.957168 23.7936C0.817998 23.6615 0.739604 23.4822 0.739186 23.2952V9.18036C0.739186 8.79045 1.07017 8.47552 1.48153 8.47552H5.19637C5.60615 8.47552 5.94186 8.79045 5.94186 9.18036Z" fill="#FEBE4F"/>
</svg>
